<?xml version="1.0" standalone="no"?>
<!DOCTYPE svg PUBLIC "-//W3C//DTD SVG 20010904//EN"
 "http://www.w3.org/TR/2001/REC-SVG-20010904/DTD/svg10.dtd">
<svg version="1.0" xmlns="http://www.w3.org/2000/svg"
 width="188.000000pt" height="156.000000pt" viewBox="0 0 188.000000 156.000000"
 preserveAspectRatio="xMidYMid meet">

<g transform="translate(0.000000,156.000000) scale(0.100000,-0.100000)"
fill="#000000" stroke="none">
<path d="M825 1550 c-339 -37 -629 -226 -754 -490 -92 -193 -80 -440 31 -628
78 -133 274 -295 428 -353 146 -55 237 -72 405 -72 176 -1 239 10 386 63 218
79 393 228 484 415 56 115 80 228 71 337 -32 382 -371 680 -828 728 -103 11
-122 11 -223 0z m365 -45 c176 -42 330 -126 451 -245 142 -141 211 -293 213
-470 0 -52 -3 -112 -7 -132 l-8 -38 -79 0 -80 0 0 275 0 275 -408 0 -408 0
-49 50 -50 51 -125 -3 -125 -3 1 -47 1 -48 -154 0 -153 0 0 -275 0 -275 -79 0
c-93 0 -91 -3 -98 120 -7 114 15 211 72 326 112 227 352 394 648 450 98 18
338 12 437 -11z m-375 -315 l49 -50 393 0 393 0 0 -40 0 -40 -307 0 c-173 0
-314 4 -323 10 -9 6 -17 5 -22 -3 -6 -9 -12 -9 -27 0 -15 10 -21 10 -24 0 -3
-9 -9 -9 -26 1 -12 7 -21 8 -21 2 0 -5 -8 -11 -17 -11 -17 -1 -17 -2 0 -6 9
-2 17 -9 17 -14 0 -5 10 -4 21 3 17 10 23 10 26 1 4 -10 10 -10 25 -2 14 8 23
8 27 1 4 -7 12 -8 21 -2 9 6 150 10 323 10 l307 0 0 -255 0 -255 -392 -2 -393
-3 393 -2 c339 -3 392 -5 392 -18 0 -13 -51 -15 -390 -15 -253 0 -390 -4 -390
-10 0 -6 137 -10 390 -10 253 0 390 -4 390 -10 0 -6 -137 -10 -390 -10 -253 0
-390 -4 -390 -10 0 -6 137 -10 390 -10 340 0 390 -2 390 -15 0 -13 -50 -15
-393 -15 l-393 0 -49 50 -49 50 -113 0 -113 0 0 365 0 365 113 0 113 0 49 -50z
m-302 -367 l-3 -318 -60 -3 -60 -3 0 35 c0 28 6 38 33 55 25 15 34 27 33 45
-2 37 -12 40 -45 16 -23 -15 -31 -30 -33 -53 l-1 -32 -4 32 c-3 21 -14 39 -33
53 -38 27 -50 25 -50 -9 0 -23 8 -34 35 -51 29 -18 35 -28 35 -56 l0 -34 -65
0 -65 0 0 320 0 320 143 0 142 0 -2 -317z m283 -374 l38 -39 -303 0 c-238 0
-302 3 -299 13 4 9 72 13 279 17 151 3 266 8 256 13 -10 4 -135 7 -278 7 -163
0 -259 4 -259 10 0 6 92 11 243 12 133 2 252 4 264 4 13 1 36 -14 59 -37z
m-28 -247 c2 -42 0 -52 -12 -52 -12 0 -16 10 -16 39 0 36 -1 38 -27 34 l-28
-5 30 20 c17 11 35 19 40 18 6 -1 11 -26 13 -54z m140 42 c26 -18 29 -56 6
-78 -18 -18 -69 -21 -79 -5 -10 16 1 22 22 11 22 -11 43 -5 43 14 0 8 -6 11
-15 8 -8 -4 -26 -3 -40 0 -32 8 -34 43 -2 56 32 13 40 12 65 -6z m130 -2 c-44
-4 -51 -19 -12 -24 38 -4 55 -35 30 -54 -26 -18 -70 -18 -86 1 -15 18 1 21 29
6 23 -13 46 2 37 24 -5 13 -13 15 -37 10 -28 -6 -30 -5 -27 17 2 18 11 24 38
28 19 4 42 4 50 0 8 -3 -2 -6 -22 -8z m160 -9 c6 -9 12 -23 12 -30 0 -21 -38
-53 -62 -53 -27 0 -54 15 -41 23 5 3 15 2 23 -3 15 -9 40 -3 40 11 0 5 -13 9
-29 9 -16 0 -35 7 -42 16 -11 14 -10 19 11 36 27 22 67 18 88 -9z"/>
<path d="M629 1143 c-2 -16 -3 -40 -1 -55 3 -25 7 -28 43 -28 55 0 94 37 78
74 -12 26 -35 36 -85 36 -27 0 -32 -4 -35 -27z m76 -28 c0 -12 -8 -21 -20 -24
-16 -3 -17 -1 -7 11 9 11 9 17 -1 27 -10 10 -8 12 8 9 12 -2 20 -11 20 -23z"/>
<path d="M632 958 c2 -42 7 -54 21 -56 12 -3 20 4 24 17 7 27 33 27 33 1 0
-13 7 -20 20 -20 18 0 20 7 20 55 0 48 -2 55 -20 55 -13 0 -20 -7 -20 -20 0
-11 -6 -20 -14 -20 -7 0 -16 9 -19 20 -3 12 -14 20 -27 20 -19 0 -21 -5 -18
-52z"/>
<path d="M871 808 c1 -162 1 -162 13 -87 14 93 34 127 78 131 33 3 33 3 33 58
l0 55 -62 3 -63 3 1 -163z"/>
<path d="M1030 963 c0 -5 -1 -81 -3 -170 -1 -90 -2 -163 -1 -163 1 0 7 38 14
85 14 99 36 135 81 135 29 0 29 0 29 60 l0 60 -60 0 c-33 0 -60 -3 -60 -7z"/>
<path d="M1181 798 l1 -173 15 89 c18 110 33 136 79 136 l34 0 0 60 0 60 -65
0 -65 0 1 -172z"/>
<path d="M1341 808 c1 -143 3 -155 11 -98 13 95 35 134 78 140 35 5 35 5 38
63 l3 57 -66 0 -65 0 1 -162z"/>
<path d="M1500 948 c0 -13 -2 -90 -3 -173 -2 -113 -1 -137 6 -95 5 30 16 80
25 110 16 53 18 55 55 58 l37 3 0 60 0 59 -60 0 c-55 0 -60 -2 -60 -22z"/>
<path d="M630 836 c0 -8 8 -13 18 -12 13 1 18 -8 20 -36 3 -33 7 -38 28 -38
21 0 24 4 24 39 0 30 4 38 16 37 9 0 19 5 21 12 3 9 -13 12 -61 12 -50 0 -66
-3 -66 -14z"/>
<path d="M630 630 l0 -50 65 0 c52 0 63 3 59 14 -3 8 -20 16 -37 18 -29 3 -32
6 -29 36 2 30 0 32 -28 32 -29 0 -30 -1 -30 -50z"/>
<path d="M346 1037 c-26 -55 -27 -59 -12 -82 22 -33 60 -33 83 1 16 25 15 28
-13 83 l-30 57 -28 -59z"/>
<path d="M290 901 c0 -23 8 -34 34 -50 43 -27 46 -27 46 8 0 21 -8 36 -29 50
-39 28 -51 26 -51 -8z"/>
<path d="M408 909 c-20 -14 -28 -30 -28 -50 0 -34 3 -35 45 -9 24 15 32 27 33
50 1 35 -12 37 -50 9z"/>
<path d="M292 818 c2 -24 12 -39 35 -55 41 -30 43 -29 43 10 0 26 -7 36 -35
55 -45 29 -47 28 -43 -10z"/>
<path d="M413 828 c-27 -16 -33 -26 -33 -54 l0 -35 29 16 c35 18 38 22 46 63
6 37 2 38 -42 10z"/>
<path d="M290 731 c0 -21 8 -36 29 -50 39 -28 51 -26 51 8 0 23 -8 34 -34 50
-43 27 -46 27 -46 -8z"/>
<path d="M413 739 c-25 -16 -33 -28 -33 -50 0 -34 5 -35 44 -11 22 13 30 26
31 50 2 38 0 38 -42 11z"/>
<path d="M852 223 c4 -22 43 -25 43 -3 0 8 -11 16 -23 18 -19 3 -23 0 -20 -15z"/>
<path d="M1124 229 c-9 -15 12 -33 30 -26 9 4 16 13 16 22 0 17 -35 21 -46 4z"/>
</g>
</svg>
